<?xml version="1.0" encoding="UTF-8"?>
<svg xmlns="http://www.w3.org/2000/svg" xmlns:xlink="http://www.w3.org/1999/xlink" viewBox="0 0 144 144" width="144px" height="144px">
<g id="surface10434862">
<path style=" stroke:none;fill-rule:nonzero;fill:rgb(20%,20%,20%);fill-opacity:1;" d="M 126 51.898438 C 126 113.398438 72 132 72 132 C 72 132 18 113.398438 18 51.898438 C 18 44.398438 18.601562 38.101562 19.199219 33 C 20.101562 25.5 25.199219 19.5 32.398438 17.699219 C 41.699219 15 56.398438 12 72 12 C 87.601562 12 102.300781 15 111.898438 17.699219 C 119.101562 19.5 124.199219 25.800781 125.101562 33 C 125.398438 38.101562 126 44.699219 126 51.898438 Z M 126 51.898438 "/>
<path style=" stroke:none;fill-rule:nonzero;fill:rgb(100%,100%,100%);fill-opacity:1;" d="M 72 21 C 86.699219 21 100.5 24 109.5 26.398438 C 113.101562 27.300781 115.5 30.300781 116.101562 34.199219 C 116.699219 39.898438 117 45.898438 117 51.898438 C 117 98.699219 82.5 117.601562 72 122.101562 C 61.5 117.300781 27 98.398438 27 51.898438 C 27 45.898438 27.300781 39.898438 27.898438 34.199219 C 28.199219 30.300781 30.898438 27.300781 34.5 26.398438 C 43.5 24 57.300781 21 72 21 M 72 12 C 56.398438 12 41.699219 15 32.101562 17.699219 C 25.199219 19.5 19.800781 25.800781 19.199219 33 C 18.601562 38.101562 18 44.699219 18 51.898438 C 18 113.398438 72 132 72 132 C 72 132 126 113.398438 126 51.898438 C 126 44.398438 125.398438 38.101562 124.800781 33 C 123.898438 25.5 118.800781 19.5 111.601562 17.699219 C 102.300781 15 87.601562 12 72 12 Z M 72 12 "/>
<path style=" stroke:none;fill-rule:nonzero;fill:rgb(100%,100%,100%);fill-opacity:1;" d="M 69 84 L 75 84 L 75 108 L 69 108 Z M 69 84 "/>
<path style=" stroke:none;fill-rule:nonzero;fill:rgb(100%,100%,100%);fill-opacity:1;" d="M 72 30 C 72 30 54 45 54 69 C 54 84.601562 63.898438 94.5 69 99 L 72 90 L 75 99 C 80.101562 94.5 90 84.601562 90 69 C 90 45 72 30 72 30 Z M 72 30 "/>
<path style=" stroke:none;fill-rule:nonzero;fill:rgb(100%,100%,100%);fill-opacity:1;" d="M 72 30 C 72 30 54 45 54 69 C 54 84.601562 63.898438 94.5 69 99 L 72 90 Z M 72 30 "/>
</g>
</svg>
