<?xml version="1.0" encoding="UTF-8"?>
<svg xmlns="http://www.w3.org/2000/svg" xmlns:xlink="http://www.w3.org/1999/xlink" viewBox="0 0 144 144" width="144px" height="144px">
<g id="surface43720564">
<path style=" stroke:none;fill-rule:nonzero;fill:rgb(100%,100%,100%);fill-opacity:1;" d="M 69.253906 33.832031 C 64.351562 26.484375 63.292969 16.664062 63.0625 12.628906 C 50.617188 15.320312 38.257812 20.148438 38.96875 23.703125 C 39.058594 24.148438 39.625 24.6875 40.558594 25.210938 L 39.097656 27.828125 C 37.308594 26.824219 36.304688 25.671875 36.03125 24.289062 C 35.222656 20.269531 39.78125 16.628906 49.957031 13.164062 C 56.902344 10.796875 63.910156 9.382812 64.210938 9.328125 L 66 8.96875 L 66 10.800781 C 66 10.925781 66.078125 23.664062 71.746094 32.167969 Z M 69.253906 33.832031 "/>
<path style=" stroke:none;fill-rule:nonzero;fill:rgb(100%,100%,100%);fill-opacity:1;" d="M 74.253906 129 L 73.5 129 C 48.925781 129 21.574219 121.28125 18.34375 108.363281 C 16.371094 100.472656 22.816406 91.753906 36.984375 83.160156 L 38.542969 85.722656 C 25.796875 93.460938 19.65625 101.238281 21.253906 107.636719 C 24.058594 118.851562 49.980469 125.839844 72.714844 125.996094 C 75.417969 121.957031 89.941406 98.21875 81.652344 66.378906 L 84.550781 65.621094 C 94 101.898438 74.898438 128.132812 74.707031 128.394531 Z M 74.253906 129 "/>
<path style=" stroke:none;fill-rule:nonzero;fill:rgb(100%,100%,100%);fill-opacity:1;" d="M 29.792969 117.917969 C 28.175781 117.917969 27.375 117.742188 27.242188 117.707031 C 26.714844 117.578125 26.300781 117.175781 26.15625 116.652344 C 26.011719 116.128906 26.160156 115.570312 26.542969 115.1875 C 26.761719 114.972656 48.136719 93.5625 51.019531 76.253906 L 53.980469 76.746094 C 51.496094 91.636719 36.835938 108.613281 31.011719 114.867188 C 36.828125 114.535156 51.515625 111.808594 79.714844 96.027344 C 57.707031 93.613281 54.226562 76 54.191406 75.808594 L 57.140625 75.265625 C 57.28125 76.003906 60.820312 93.300781 84.871094 93.300781 C 84.882812 93.300781 84.886719 93.300781 84.898438 93.300781 C 85.578125 93.300781 86.167969 93.757812 86.34375 94.410156 C 86.523438 95.0625 86.234375 95.757812 85.648438 96.097656 C 51.945312 115.625 35.601562 117.914062 29.792969 117.917969 Z M 29.792969 117.917969 "/>
<path style=" stroke:none;fill-rule:nonzero;fill:rgb(100%,100%,100%);fill-opacity:1;" d="M 43.570312 125.101562 C 42.949219 125.101562 42.386719 124.714844 42.167969 124.125 C 41.929688 123.492188 42.148438 122.773438 42.699219 122.378906 C 42.800781 122.304688 48.136719 118.363281 53.816406 109.695312 C 51.632812 108.730469 49.421875 107.601562 47.230469 106.285156 C 44.566406 104.683594 42.550781 102.96875 41.050781 101.210938 C 33.339844 103.246094 26.222656 104.050781 19.972656 103.519531 L 20.226562 100.53125 C 25.855469 101.007812 32.253906 100.339844 39.1875 98.609375 C 34.46875 90.546875 38.800781 82.542969 38.863281 82.433594 L 41.484375 83.894531 C 41.28125 84.261719 37.6875 91.003906 42.230469 97.792969 C 48.835938 95.898438 55.878906 93.09375 63.167969 89.449219 C 64.84375 83.941406 66.15625 77.683594 66.84375 70.621094 C 66.890625 70.136719 67.167969 69.707031 67.585938 69.464844 C 68.007812 69.222656 68.519531 69.199219 68.960938 69.402344 C 69.058594 69.445312 78.753906 73.875 85.773438 76.765625 C 86.28125 76.972656 86.636719 77.449219 86.695312 77.996094 C 86.753906 78.546875 86.503906 79.078125 86.046875 79.390625 C 79.179688 84.070312 72.355469 88.132812 65.710938 91.519531 C 63.605469 98.191406 61 103.75 58.335938 108.289062 C 69.441406 112.441406 79.078125 112.503906 79.203125 112.503906 C 79.886719 112.503906 80.484375 112.964844 80.65625 113.628906 C 80.824219 114.289062 80.527344 114.984375 79.933594 115.316406 C 66.3125 122.882812 44.632812 125.011719 43.714844 125.101562 C 43.667969 125.097656 43.621094 125.101562 43.570312 125.101562 Z M 56.726562 110.902344 C 53.605469 115.742188 50.539062 119.21875 48.25 121.492188 C 54.242188 120.609375 64.753906 118.675781 73.472656 115.074219 C 69.296875 114.5625 63.253906 113.421875 56.726562 110.902344 Z M 44.300781 100.292969 C 45.480469 101.46875 46.949219 102.617188 48.769531 103.714844 C 50.980469 105.039062 53.21875 106.164062 55.429688 107.117188 C 57.691406 103.324219 59.933594 98.773438 61.855469 93.414062 C 55.792969 96.300781 49.90625 98.605469 44.300781 100.292969 Z M 69.605469 72.988281 C 68.992188 78.289062 68.042969 83.128906 66.867188 87.535156 C 71.847656 84.882812 76.929688 81.847656 82.054688 78.460938 C 77.40625 76.492188 72.296875 74.203125 69.605469 72.988281 Z M 69.605469 72.988281 "/>
<path style=" stroke:none;fill-rule:nonzero;fill:rgb(100%,100%,100%);fill-opacity:1;" d="M 53.773438 31.800781 C 53.421875 31.800781 53.074219 31.675781 52.796875 31.441406 C 47.96875 27.304688 42.28125 18.894531 42.042969 18.535156 C 41.65625 17.964844 41.714844 17.199219 42.179688 16.6875 C 42.640625 16.175781 43.402344 16.054688 44.003906 16.382812 C 44.035156 16.390625 46.816406 17.539062 65.65625 20.675781 C 66.199219 20.765625 66.644531 21.144531 66.824219 21.660156 C 67.007812 22.175781 66.890625 22.753906 66.523438 23.160156 C 61.25 29.019531 54.589844 31.597656 54.304688 31.703125 C 54.132812 31.765625 53.949219 31.800781 53.773438 31.800781 Z M 46.941406 20.238281 C 48.835938 22.785156 51.5625 26.226562 54.058594 28.546875 C 55.589844 27.847656 59.027344 26.089844 62.289062 23.152344 C 54.539062 21.828125 49.8125 20.886719 46.941406 20.238281 Z M 46.941406 20.238281 "/>
<path style=" stroke:none;fill-rule:nonzero;fill:rgb(100%,100%,100%);fill-opacity:1;" d="M 65.527344 73.199219 C 65.324219 73.199219 65.117188 73.15625 64.925781 73.074219 C 64.328125 72.808594 63.96875 72.191406 64.039062 71.542969 C 64.914062 63.296875 52.261719 59.988281 52.132812 59.957031 C 51.609375 59.824219 51.195312 59.421875 51.054688 58.902344 C 50.914062 58.382812 51.058594 57.824219 51.441406 57.445312 C 52.0625 56.824219 66.859375 42.148438 85.421875 34.09375 C 85.941406 33.867188 86.527344 33.949219 86.96875 34.300781 C 87.402344 34.65625 87.601562 35.222656 87.488281 35.769531 C 83.929688 53 67.359375 71.902344 66.65625 72.695312 C 66.359375 73.023438 65.945312 73.199219 65.527344 73.199219 Z M 55.363281 57.855469 C 58.917969 59.191406 65.140625 62.28125 66.714844 67.921875 C 71.0625 62.5 80.339844 50.003906 83.804688 38.121094 C 70.644531 44.449219 59.5625 53.996094 55.363281 57.855469 Z M 55.363281 57.855469 "/>
<path style=" stroke:none;fill-rule:nonzero;fill:rgb(100%,100%,100%);fill-opacity:1;" d="M 39.238281 85.078125 L 37.8125 82.441406 C 43.460938 79.394531 49.933594 73.789062 55.234375 67.277344 C 50.722656 70.367188 48.136719 72.484375 48.058594 72.550781 L 46.140625 70.242188 C 46.257812 70.144531 51.433594 65.902344 60.03125 60.582031 C 62.394531 56.785156 64.210938 52.878906 65.140625 49.132812 C 65.300781 48.496094 65.4375 47.882812 65.550781 47.289062 C 59.773438 45.226562 54.445312 44.007812 50.785156 43.480469 C 50.230469 43.402344 49.769531 43.023438 49.585938 42.496094 C 49.398438 41.972656 49.519531 41.386719 49.894531 40.976562 C 50.152344 40.699219 56.242188 34.171875 63.859375 30.589844 C 64.449219 30.308594 65.15625 30.445312 65.601562 30.929688 C 65.800781 31.148438 69.921875 35.773438 68.875 45.34375 C 72.339844 46.695312 75.910156 48.335938 79.347656 50.289062 C 87.625 46.570312 97.023438 43.222656 107.035156 41.199219 C 107.550781 41.097656 108.121094 41.28125 108.476562 41.703125 C 108.828125 42.121094 108.925781 42.703125 108.726562 43.210938 C 104.824219 53.207031 94.367188 63.886719 93.925781 64.335938 C 93.621094 64.640625 93.207031 64.792969 92.773438 64.777344 C 92.347656 64.753906 91.949219 64.550781 91.679688 64.214844 C 88.320312 59.992188 83.929688 56.492188 79.191406 53.644531 C 72.664062 56.65625 66.886719 59.878906 62.140625 62.792969 C 56.078125 72.253906 46.933594 80.9375 39.238281 85.078125 Z M 82.476562 52.1875 C 86.347656 54.683594 89.949219 57.617188 92.929688 61.03125 C 95.410156 58.339844 101.371094 51.527344 104.753906 44.765625 C 96.804688 46.597656 89.28125 49.246094 82.476562 52.1875 Z M 68.398438 48.367188 C 68.296875 48.855469 68.183594 49.355469 68.058594 49.867188 C 67.429688 52.382812 66.425781 54.96875 65.140625 57.550781 C 68.429688 55.671875 72.070312 53.734375 75.996094 51.855469 C 73.480469 50.523438 70.917969 49.363281 68.398438 48.367188 Z M 54.144531 41.015625 C 57.476562 41.671875 61.585938 42.738281 65.96875 44.273438 C 66.421875 38.746094 64.929688 35.359375 64.027344 33.859375 C 59.898438 36.011719 56.28125 39.042969 54.144531 41.015625 Z M 54.144531 41.015625 "/>
<path style=" stroke:none;fill-rule:nonzero;fill:rgb(100%,100%,100%);fill-opacity:1;" d="M 54.148438 55.5 C 54.148438 68.640625 43.199219 79.078125 35.308594 86.699219 C 33.988281 87.988281 29.519531 88.199219 29.519531 88.199219 C 30.628906 87.058594 31.890625 85.859375 33.238281 84.570312 C 40.738281 77.308594 51.148438 67.378906 51.148438 55.5 C 51.148438 41.429688 45.480469 35.878906 41.011719 31.441406 C 39.03125 29.429688 37.351562 27.511719 36.328125 25.171875 L 37.261719 24.78125 C 38.28125 25.230469 39.449219 25.738281 40.351562 26.128906 C 41.070312 27.179688 42.03125 28.199219 43.140625 29.308594 C 47.730469 33.898438 54.148438 40.199219 54.148438 55.5 Z M 54.148438 55.5 "/>
<path style=" stroke:none;fill-rule:nonzero;fill:rgb(100%,100%,100%);fill-opacity:1;" d="M 128.804688 59.382812 C 128.804688 59.382812 126.988281 59.640625 126.480469 59.699219 C 100.199219 62.609375 73.078125 70.171875 57.570312 76.378906 C 51.960938 78.628906 46.140625 81.359375 40.828125 84.421875 C 40.800781 84.449219 40.769531 84.449219 40.710938 84.480469 C 37.589844 86.28125 30 90 23.851562 93.269531 C 32.851562 83.699219 49.710938 76.320312 56.429688 73.621094 C 71.640625 67.53125 97.769531 60.179688 123.480469 57.03125 C 120.449219 53.488281 113.039062 45.988281 98.460938 40.410156 C 89.941406 37.109375 76.980469 35.25 65.550781 33.601562 C 47.371094 30.988281 37.019531 29.25 36.03125 24.300781 C 35.820312 23.308594 35.96875 22.320312 36.421875 21.359375 C 37.410156 22.980469 38.820312 24.121094 39.75 24.78125 C 40.199219 25.078125 40.53125 25.261719 40.648438 25.320312 L 40.679688 25.351562 C 44.941406 27.601562 56.429688 29.25 66 30.628906 C 77.578125 32.308594 90.691406 34.199219 99.539062 37.589844 C 120.148438 45.539062 127.261719 56.910156 127.558594 57.390625 C 127.828125 57.839844 128.804688 59.382812 128.804688 59.382812 Z M 128.804688 59.382812 "/>
</g>
</svg>
