<?xml version="1.0" encoding="UTF-8"?>
<svg xmlns="http://www.w3.org/2000/svg" xmlns:xlink="http://www.w3.org/1999/xlink" viewBox="0 0 150 150" width="150px" height="150px">
<g id="surface10429052">
<path style=" stroke:none;fill-rule:nonzero;fill:rgb(100%,100%,100%);fill-opacity:1;" d="M 93.503906 24 C 92.097656 23.964844 90.867188 24.503906 90.234375 26.0625 C 89.15625 28.675781 91.839844 31.230469 92.800781 32.566406 C 93.46875 33.492188 94.335938 34.535156 94.816406 35.578125 C 95.132812 36.269531 95.179688 36.960938 95.449219 37.6875 C 96.117188 39.480469 97.183594 41.519531 98.039062 43.183594 C 98.472656 44.027344 98.953125 44.90625 99.503906 45.65625 C 99.84375 46.113281 100.417969 46.324219 100.511719 47.027344 C 99.949219 47.824219 99.914062 49.054688 99.597656 50.0625 C 98.167969 54.574219 98.707031 60.1875 100.78125 63.515625 C 101.425781 64.546875 102.9375 66.738281 105 65.90625 C 106.804688 65.167969 106.40625 62.882812 106.921875 60.855469 C 107.039062 60.410156 106.96875 60.070312 107.203125 59.765625 L 107.203125 59.859375 C 107.742188 60.960938 108.292969 62.0625 108.84375 63.152344 C 110.074219 65.121094 112.242188 67.171875 114.070312 68.566406 C 115.019531 69.28125 115.769531 70.523438 117 70.945312 L 117 70.851562 L 116.90625 70.851562 C 116.671875 70.476562 116.296875 70.324219 115.992188 70.03125 C 115.277344 69.328125 114.480469 68.449219 113.894531 67.640625 C 112.21875 65.378906 110.742188 62.894531 109.40625 60.316406 C 108.761719 59.085938 108.199219 57.726562 107.660156 56.472656 C 107.449219 55.980469 107.449219 55.253906 107.015625 54.996094 C 106.417969 55.921875 105.550781 56.660156 105.09375 57.75 C 104.367188 59.484375 104.261719 61.605469 103.992188 63.796875 C 103.828125 63.855469 103.898438 63.808594 103.816406 63.890625 C 102.539062 63.574219 102.082031 62.261719 101.613281 61.136719 C 100.417969 58.289062 100.183594 53.695312 101.25 50.425781 C 101.519531 49.570312 102.75 46.898438 102.257812 46.113281 C 102.023438 45.328125 101.226562 44.882812 100.792969 44.285156 C 100.242188 43.546875 99.703125 42.574219 99.328125 41.71875 C 98.34375 39.492188 97.417969 36.914062 96.375 34.664062 C 95.882812 33.585938 95.050781 32.507812 94.359375 31.546875 C 93.597656 30.492188 92.753906 29.71875 92.15625 28.429688 C 91.957031 27.984375 91.664062 27.257812 91.980469 26.789062 C 92.074219 26.472656 92.214844 26.34375 92.53125 26.238281 C 93.058594 25.828125 94.535156 26.367188 95.097656 26.601562 C 96.5625 27.210938 97.792969 27.796875 99.035156 28.617188 C 99.632812 29.015625 100.230469 29.777344 100.957031 30 L 101.777344 30 C 103.078125 30.292969 104.519531 30.082031 105.714844 30.457031 C 107.847656 31.101562 109.757812 32.109375 111.480469 33.199219 C 116.765625 36.527344 121.089844 41.273438 124.03125 46.933594 C 124.511719 47.847656 124.722656 48.726562 125.144531 49.6875 C 125.976562 51.632812 127.042969 53.648438 127.886719 55.546875 C 128.71875 57.457031 129.539062 59.367188 130.722656 60.949219 C 131.34375 61.78125 133.757812 62.238281 134.847656 62.695312 C 135.609375 63.023438 136.875 63.363281 137.589844 63.796875 C 138.984375 64.628906 140.320312 65.625 141.621094 66.550781 C 142.277344 67.007812 144.269531 68.003906 144.375 68.835938 C 141.152344 68.753906 138.691406 69.046875 136.59375 69.9375 C 135.996094 70.195312 135.035156 70.195312 134.941406 70.945312 C 135.257812 71.285156 135.316406 71.800781 135.574219 72.222656 C 136.078125 73.03125 136.921875 74.121094 137.683594 74.695312 C 138.515625 75.316406 139.359375 75.984375 140.25 76.535156 C 141.820312 77.484375 143.578125 78.035156 145.101562 78.996094 C 145.992188 79.570312 146.894531 80.285156 147.761719 80.917969 C 148.195312 81.246094 148.476562 81.738281 149.039062 81.9375 L 149.039062 81.84375 C 148.746094 81.46875 148.675781 80.953125 148.40625 80.566406 L 147.199219 79.359375 C 146.039062 77.824219 144.5625 76.464844 142.992188 75.339844 C 141.738281 74.4375 138.9375 73.21875 138.421875 71.765625 L 138.328125 71.671875 C 139.207031 71.578125 140.25 71.25 141.070312 71.027344 C 142.453125 70.664062 143.671875 70.757812 145.089844 70.394531 C 145.734375 70.207031 146.378906 70.019531 147.023438 69.84375 L 147.023438 69.46875 C 146.308594 68.742188 145.792969 67.757812 145.007812 67.089844 C 142.957031 65.34375 140.71875 63.597656 138.410156 62.144531 C 137.132812 61.335938 135.550781 60.808594 134.203125 60.128906 C 133.746094 59.894531 132.949219 59.777344 132.644531 59.390625 C 131.929688 58.488281 131.542969 57.339844 130.992188 56.285156 C 129.84375 54.070312 128.71875 51.65625 127.699219 49.324219 C 127.007812 47.742188 126.550781 46.171875 125.683594 44.742188 C 121.523438 37.910156 117.046875 33.773438 110.109375 29.71875 C 108.632812 28.851562 106.863281 28.523438 104.988281 28.078125 C 103.96875 28.007812 102.972656 27.949219 101.953125 27.890625 C 101.34375 27.632812 100.699219 26.882812 100.125 26.507812 C 98.683594 25.605469 95.847656 24.035156 93.503906 24 Z M 103.429688 33.9375 C 102.761719 33.925781 102.28125 34.019531 101.777344 34.125 L 101.777344 34.21875 L 101.871094 34.21875 C 102.1875 34.875 102.761719 35.296875 103.160156 35.859375 C 103.464844 36.503906 103.757812 37.148438 104.0625 37.792969 L 104.15625 37.699219 C 104.71875 37.300781 104.988281 36.65625 104.988281 35.683594 C 104.753906 35.449219 104.71875 35.144531 104.53125 34.863281 C 104.261719 34.476562 103.757812 34.265625 103.429688 33.9375 Z M 5.601562 71.988281 C 4.699219 72.023438 3.714844 72.199219 2.648438 72.539062 C 0.867188 73.078125 -0.0117188 74.144531 -0.0117188 76.3125 L -0.0117188 99 L 6 99 L 6 76.863281 L 14.332031 95.789062 C 15.363281 98.144531 16.769531 98.988281 19.523438 98.988281 C 22.289062 98.988281 23.636719 98.144531 24.667969 95.789062 L 33 77.34375 L 33 99 L 39 99 L 39 76.3125 C 39 74.144531 38.132812 73.078125 36.339844 72.539062 C 32.074219 71.191406 29.203125 72.351562 27.914062 75.269531 L 19.359375 94.511719 L 11.085938 75.269531 C 10.148438 73.078125 8.273438 71.882812 5.601562 71.988281 Z M 78.738281 72 C 76.371094 72 69 72.28125 69 78 L 69 81.703125 C 69 84.328125 71.308594 86.472656 76.3125 87 C 76.875 87.035156 77.4375 87.082031 78 87.082031 C 78 87.082031 83.835938 86.964844 84 87 C 87.375 87 87 89.625 87 90 L 87 93 C 87 93.410156 86.90625 96 83.964844 96 L 69 96 L 69 99 L 84.023438 99 C 85.992188 99 87.902344 98.589844 89.425781 97.875 C 91.957031 96.714844 93 95.144531 93 93.082031 L 93 88.792969 C 93 84.1875 87.28125 84 84 84 L 78 84 C 75.644531 84 75.28125 82.570312 75 81 L 75 78 C 75.28125 76.804688 75.808594 75.1875 77.894531 75 L 93 75 L 93 72 Z M 101.941406 72 C 97.511719 72.609375 95.953125 74.8125 95.953125 78 L 95.953125 93 C 95.953125 95.917969 97.582031 97.675781 100.933594 98.589844 C 102.058594 98.90625 103.078125 99.035156 104.039062 99.035156 L 110.71875 99 L 114.644531 99 L 117.984375 102 L 124.734375 102 L 120.09375 97.816406 C 122.273438 96.914062 122.953125 95.53125 122.953125 92.941406 L 122.953125 78 C 122.953125 74.8125 120.878906 72.609375 116.449219 72 Z M 126 72 L 126 92.871094 C 126 96.492188 128.050781 98.53125 133.476562 98.941406 C 133.980469 98.964844 134.496094 99 135 99 L 150 99 L 150 96 L 136.136719 96 C 133.042969 96 132 94.699219 132 92.847656 L 132 72 Z M 105.515625 75 L 113.238281 75 C 115.277344 75 116.648438 76.640625 116.953125 78 C 116.953125 78 117 91.96875 117 93 C 117 94.03125 116.425781 94.5 116.425781 94.5 L 114.796875 93 L 108 93 L 111.339844 96 L 105.515625 96 C 103.429688 96 102.257812 94.453125 101.953125 93 L 101.953125 78.304688 C 101.953125 76.710938 103.171875 75 105.515625 75 Z M 42 81 C 42.117188 81.117188 42 93.785156 42 94.03125 C 42.046875 96.65625 45.375 98.953125 50.589844 99 L 60 99 L 60 99.199219 C 60 99.761719 60.410156 101.636719 57 102 C 56.964844 102 42.035156 102 42 102 L 42 105 L 57.644531 105 C 60.292969 104.917969 66.035156 104.320312 66 99.726562 C 66 99.644531 66.023438 81 66 81 L 60 81 L 60 96 C 59.90625 96 52.570312 96.023438 51.09375 96 C 48.199219 95.953125 47.953125 94.300781 48 93.667969 L 48 81 Z M 42 81 "/>
</g>
</svg>
